Description
Filmed in a starkly realistic documentary style, this film shows the effects of the Trans-Amazonian Highway that was cut through the rain forest in 1972. Iracema (Edna de Cássia) is a young woman of Indian appearance who seeks a living as a prostitute by hitchhiking from town to town along the highway. She is picked up by various men, who treat her with varying degrees of crudeness. Along the way we meet other people who talk about how the highway has affected their lives: farmers who saw their land taken from them because they had not documentation of ownership, loggers who did the hard work of blazing the trail only to find the price of wood dropping when the highway came. At the beginning of the film Iracema meets the worldly trucker Tião, who is optimistic about Brazil's progress, and she haggles over her services, starting at 30 cruzeiros. At the end of the film, several mishaps later, Iracema meets Tião again, though he does not recognize her at first. Tião has lost his logging truck and is now transporting cows and making less money than before. Iracema asks for a ride, now asking only 5 cruzeiros, and Tiao leaves her behind. Iracema was filmed in 1975 but was not released commercially until 1981 because of censorship. Iracema is the only major Indian character; the forest's aboriginal inhabitants, who suffered most from the highway, only appear as passing shadows in the onslaught of progress.


Resumo em português:
O filme é na realidade um auto-retrato da população da Transamazônica. Retrata realisticamente os problemas da região. Conta a história de uma menina do interior, que vai a Belém com a família para pagar promessa na festa do Sírio Nazaré. O novo meio e as companhias que encontra levam a menina à prostituição. Conhece num cabaré um motorista de caminhão Tião Brasil Grande, negociante de madeira. Influenciada pelas outras prostitutas ela quer ir para os grandes centros (São Paulo e Rio) e pega carona com o motorista. O filme é na realidade um auto-retrato da população da Transamazônica. Retrata realisticamente os problemas da região. Conta a história de uma menina do interior, que vai a Belém com a família para pagar promessa na festa do Sírio Nazaré. O novo meio e as companhias que encontra levam a menina à prostituição. Conhece num cabaré um motorista de caminhão Tião Brasil Grande, negociante de madeira. Influenciada pelas outras prostitutas ela quer ir para os grandes centros (São Paulo e Rio) e pega carona com o motorista. Saem pela Transamazônica, testemunhando toda a espécie de acontecimentos e dramas que a construção da estrada impôs aos habitantes locais. Abandonada pelo motorista num bordel à beira da estrada, a jovem se vê diante de uma realidade cada vez mais chocante e decadente.

Format : Matroska
Format version : Version 2
File size : 787 MiB
Duration : 1h 35mn
Overall bit rate : 1 147 Kbps
Encoded date : UTC 2013-05-07 10:05:54
Writing application : mkvmerge v5.8.0 ('No Sleep / Pillow') built on Sep 2 2012 15:37:04
Writing library : libebml v1.2.3 + libmatroska v1.3.0

Video
ID : 1
Format : AVC
Format/Info : Advanced Video Codec
Format profile : High@L4.1
Format settings, CABAC : Yes
Format settings, ReFrames : 4 frames
Muxing mode : Header stripping
Codec ID : V_MPEG4/ISO/AVC
Duration : 1h 35mn
Bit rate : 932 Kbps
Width : 720 pixels
Height : 400 pixels
Display aspect ratio : 16:9
Frame rate mode : Constant
Frame rate : 23.976 fps
Color space : YUV
Chroma subsampling : 4:2:0
Bit depth : 8 bits
Scan type : Progressive
Bits/(Pixel*Frame) : 0.135
Stream size : 639 MiB (81%)
Title : Iracema Uma Transa Amazonica ( by fantasma )
Writing library : x264 core 130 r2273 b3065e6
Encoding settings : cabac=1 / ref=3 / deblock=1:0:0 / analyse=0x3:0x113 / me=hex / subme=7 / psy=1 / psy_rd=1.00:0.00 / mixed_ref=1 / me_range=16 / chroma_me=1 / trellis=1 / 8x8dct=1 / cqm=0 / deadzone=21,11 / fast_pskip=1 / chroma_qp_offset=-2 / threads=3 / lookahead_threads=1 / sliced_threads=0 / nr=0 / decimate=1 / interlaced=0 / bluray_compat=0 / constrained_intra=0 / bframes=3 / b_pyramid=2 / b_adapt=1 / b_bias=0 / direct=1 / weightb=1 / open_gop=0 / weightp=2 / keyint=240 / keyint_min=23 / scenecut=40 / intra_refresh=0 / rc_lookahead=40 / rc=crf / mbtree=1 / crf=23.0 / qcomp=0.60 / qpmin=0 / qpmax=69 / qpstep=4 / vbv_maxrate=62500 / vbv_bufsize=78125 / crf_max=0.0 / nal_hrd=none / ip_ratio=1.40 / aq=1:1.00
Language : Portuguese
Default : Yes
Forced : No

Audio
ID : 2
Format : AC-3
Format/Info : Audio Coding 3
Mode extension : CM (complete main)
Format settings, Endianness : Big
Muxing mode : Header stripping
Codec ID : A_AC3
Duration : 1h 35mn
Bit rate mode : Constant
Bit rate : 192 Kbps
Channel(s) : 2 channels
Channel positions : Front: L R
Sampling rate : 48.0 KHz
Bit depth : 16 bits
Compression mode : Lossy
Stream size : 132 MiB (17%)
Title : by fantasma
Language : Portuguese
Default : Yes
Forced : No

Text
ID : 3
Format : UTF-8
Codec ID : S_TEXT/UTF8
Codec ID/Info : UTF-8 Plain Text
Title : Credito
Language : Portuguese
Default : Yes
Forced : No

Menu
00:00:00.000 : en:Chapter 01
00:04:59.767 : en:Chapter 02
00:09:59.934 : en:Chapter 03
00:14:59.835 : en:Chapter 04
00:19:59.868 : en:Chapter 05
00:24:59.769 : en:Chapter 06
00:29:59.536 : en:Chapter 07
00:34:59.836 : en:Chapter 08
00:39:59.737 : en:Chapter 09
00:44:59.504 : en:Chapter 10
00:49:59.804 : en:Chapter 11
00:54:59.837 : en:Chapter 12
00:59:59.604 : en:Chapter 13
01:04:59.505 : en:Chapter 14
01:09:59.805 : en:Chapter 15
01:14:59.572 : en:Chapter 16
01:19:59.339 : en:Chapter 17
01:24:59.639 : en:Chapter 18
01:29:59.540 : en:Chapter 19
01:34:59.707 : en:Chapter 20
